# xmcd
#
# Track frame offsets:
#	150
#	10192
#	22528
#	38759
#	49230
#	62505
#	76564
#	89957
#
# Disc length: 1443 seconds
#
# Revision: 0
# Processed by: cddbd v1.5.1PL0 Copyright (c) Steve Scherf et al.
# Submitted via: dBpowerAMP V4.0
#
DISCID=5005a108
DTITLE=Moses Braxton Jr - Spiritual Songs of Grace and Freedom
DYEAR=1900
DGENRE=Gospel
TTITLE0=Let Thy People Go
TTITLE1=Deep River
TTITLE2=Nobody Knows the Trouble I've Seen
TTITLE3=Sometimes I Feel Like A Motherless Child
TTITLE4=Swing Low, Sweet Chariot
TTITLE5=Battle Hymn of the Republic
TTITLE6=The Lord's Prayer
TTITLE7=Amazing Grace
EXTD=
EXTT0=
EXTT1=
EXTT2=
EXTT3=
EXTT4=
EXTT5=
EXTT6=
EXTT7=
PLAYORDER=
